<svg width="1922" height="1200" fill="none" xmlns="http://www.w3.org/2000/svg"><path fill="#fff" d="M0 0h1920v1200H0z"/><path d="M91.234 1072.31h.001c7.853 6.19 11.286 12.08 11.311 12.12h.005c.025-.04 3.391-5.97 11.177-12.24l.001-.01h-.001c-7.855-6.19-11.287-12.07-11.312-12.12h-.005c-.024.05-3.392 5.97-11.176 12.25zM91.563 1131.68h.001c7.853 6.19 11.286 12.08 11.311 12.12h.005c.025-.04 3.392-5.97 11.177-12.24h.001l-.001-.01c-7.854-6.18-11.287-12.07-11.312-12.12h-.005c-.024.05-3.392 5.97-11.175 12.25h-.002z" fill="#FFED90"/><path d="M124.733 1101.81c7.858 6.19 11.291 12.08 11.313 12.12h.004c.021-.04 3.387-5.97 11.177-12.24v-.01c-7.859-6.19-11.291-12.08-11.312-12.12h-.004c-.021.04-3.389 5.97-11.176 12.25h-.002" fill="#EFE1D4"/><path d="M58.068 1102.18c7.85 6.19 11.284 12.07 11.312 12.12h.005c.027-.05 3.394-5.97 11.176-12.24l.001-.01c-7.852-6.18-11.284-12.07-11.312-12.12h-.005c-.028.05-3.396 5.98-11.176 12.25h-.001" fill="#84CFCB"/><path d="M91.234 945.309l.001.002c7.853 6.187 11.286 12.075 11.311 12.118h.005c.025-.043 3.391-5.969 11.177-12.243l.001-.002-.001-.002c-7.855-6.187-11.287-12.076-11.312-12.119h-.005c-.024.043-3.392 5.97-11.176 12.244v.002zM91.563 1004.68h.001c7.853 6.19 11.286 12.08 11.311 12.12h.005c.025-.04 3.392-5.97 11.177-12.24h.001l-.001-.01c-7.854-6.184-11.287-12.072-11.312-12.115h-.005c-.024.043-3.392 5.969-11.175 12.245h-.002z" fill="#FFED90"/><path d="M124.733 974.811c7.858 6.191 11.291 12.083 11.313 12.12h.004c.021-.037 3.387-5.966 11.177-12.244v-.002-.002c-7.859-6.19-11.291-12.082-11.312-12.119l-.002-.001-.002.001c-.021.037-3.389 5.966-11.176 12.243a.008.008 0 00-.002.004" fill="#EFE1D4"/><path d="M58.068 975.181c7.85 6.185 11.284 12.072 11.312 12.12h.005c.027-.049 3.394-5.973 11.176-12.244l.001-.002v-.002c-7.852-6.185-11.284-12.072-11.312-12.12h-.005c-.028.049-3.396 5.973-11.176 12.244a.005.005 0 00-.001.004" fill="#84CFCB"/><path d="M234.234 1072.31h.001c7.853 6.19 11.286 12.08 11.311 12.12h.005c.025-.04 3.391-5.97 11.177-12.24l.001-.01h-.001c-7.855-6.19-11.287-12.07-11.312-12.12h-.005c-.024.05-3.392 5.97-11.176 12.25h-.001zM234.563 1131.68h.002c7.852 6.19 11.285 12.08 11.31 12.12h.005c.025-.04 3.392-5.97 11.177-12.24h.001l-.001-.01c-7.854-6.18-11.287-12.07-11.312-12.12h-.005c-.024.05-3.392 5.97-11.175 12.25h-.002z" fill="#FFED90"/><path d="M267.733 1101.81c7.858 6.19 11.291 12.08 11.313 12.12h.004c.021-.04 3.387-5.97 11.177-12.24v-.01c-7.859-6.19-11.291-12.08-11.312-12.12h-.004c-.021.04-3.389 5.97-11.176 12.25h-.002" fill="#EFE1D4"/><path d="M201.068 1102.18c7.849 6.19 11.284 12.07 11.312 12.12h.005c.028-.05 3.394-5.97 11.176-12.24l.001-.01h-.001c-7.851-6.18-11.283-12.07-11.311-12.12h-.006c-.027.05-3.395 5.98-11.175 12.25h-.001M1688.42 959.155l.01.001c14.13 4.181 22.06 10.363 22.12 10.415.01.002 0 0 .01-.001v-.002c.01-.083 1.39-10.039 8.61-22.889v-.002-.001c-14.13-4.177-22.06-10.363-22.12-10.415-.01-.001-.01 0-.01.001v.002c-.01.084-1.39 10.043-8.62 22.889v.002z" fill="#84CFCB"/><path d="M1688.42 959.155l.01.001c14.13 4.181 22.06 10.363 22.12 10.415.01.002 0 0 .01-.001v-.002c.01-.083 1.39-10.039 8.61-22.889v-.002-.001c-14.13-4.177-22.06-10.363-22.12-10.415-.01-.001-.01 0-.01.001v.002c-.01.084-1.39 10.043-8.62 22.889v.002z" fill="#84CFCB"/><path d="M1223.29 1149.74c14.14 4.18 22.07 10.37 22.13 10.42h.01v-.01c.01-.08 1.38-10.03 8.61-22.88v-.01c-14.14-4.17-22.06-10.36-22.13-10.41-.01.08-1.39 10.04-8.62 22.89z" fill="#EFE1D4"/><path d="M1223.29 1149.74c14.14 4.18 22.07 10.37 22.13 10.42h.01v-.01c.01-.08 1.38-10.03 8.61-22.88v-.01c-14.14-4.17-22.06-10.36-22.13-10.41-.01.08-1.39 10.04-8.62 22.89zM1779.55 922.178v.001c14.14 4.181 22.06 10.364 22.13 10.415v-.001c.01-.001.01.001.01-.002.01-.083 1.38-10.039 8.61-22.889v-.001-.001c-14.14-4.178-22.06-10.364-22.13-10.415v.003c-.02.083-1.39 10.042-8.62 22.889v.001z" fill="#EFE1D4"/><path d="M1779.55 922.178v.001c14.14 4.181 22.06 10.364 22.13 10.415v-.001c.01-.001.01.001.01-.002.01-.083 1.38-10.039 8.61-22.889v-.001-.001c-14.14-4.178-22.06-10.364-22.13-10.415v.003c-.02.083-1.39 10.042-8.62 22.889v.001z" fill="#EFE1D4"/><path d="M1597.3 996.131v.001c14.13 4.178 22.06 10.368 22.13 10.418v-.01c.01-.08 1.39-10.035 8.62-22.884v-.002-.001c-14.14-4.178-22.07-10.363-22.13-10.415 0-.002 0 0-.01.001v.002c-.01.083-1.39 10.042-8.61 22.889v.001z" fill="#FFED90"/><path d="M1597.3 996.131v.001c14.13 4.178 22.06 10.368 22.13 10.418v-.01c.01-.08 1.39-10.035 8.62-22.884v-.002-.001c-14.14-4.178-22.07-10.363-22.13-10.415 0-.002 0 0-.01.001v.002c-.01.083-1.39 10.042-8.61 22.889v.001z" fill="#FFED90"/><path d="M1506.17 1033.11c14.15 4.18 22.08 10.38 22.13 10.41 0 .01 0 0 0 0 .01-.06 1.38-10.02 8.62-22.89-14.16-4.18-22.08-10.38-22.13-10.42v.01h-.01c-.01.06-1.38 10.03-8.61 22.89z" fill="#EFE1D4"/><path d="M1506.17 1033.11c14.15 4.18 22.08 10.38 22.13 10.41 0 .01 0 0 0 0 .01-.06 1.38-10.02 8.62-22.89-14.16-4.18-22.08-10.38-22.13-10.42v.01h-.01c-.01.06-1.38 10.03-8.61 22.89z" fill="#EFE1D4"/><path d="M1415.04 1070.08v.01c14.14 4.18 22.07 10.36 22.13 10.41h.01c.01-.08 1.38-10.04 8.61-22.89-14.14-4.18-22.06-10.37-22.13-10.42h-.01c-.01.09-1.38 10.04-8.61 22.89z" fill="#84CFCB"/><path d="M1415.04 1070.08v.01c14.14 4.18 22.07 10.36 22.13 10.41h.01c.01-.08 1.38-10.04 8.61-22.89-14.14-4.18-22.06-10.37-22.13-10.42h-.01c-.01.09-1.38 10.04-8.61 22.89z" fill="#84CFCB"/><path d="M1323.91 1107.06c14.14 4.18 22.07 10.37 22.13 10.42h.01v-.01c.01-.08 1.38-10.03 8.61-22.88v-.01c-14.14-4.18-22.06-10.36-22.13-10.41-.01.08-1.39 10.04-8.62 22.89" fill="#FFED90"/><path d="M1323.91 1107.06c14.14 4.18 22.07 10.37 22.13 10.42h.01v-.01c.01-.08 1.38-10.03 8.61-22.88v-.01c-14.14-4.18-22.06-10.36-22.13-10.41-.01.08-1.39 10.04-8.62 22.89M1880.56 880.421c14.14 4.181 22.06 10.366 22.12 10.416.01.001.01 0 .01-.001v-.002c.01-.081 1.39-10.038 8.62-22.889v-.001l-.01-.001c-14.14-4.179-22.06-10.365-22.12-10.416l-.01.001v.002c-.01.081-1.39 10.04-8.61 22.888v.003" fill="#FFED90"/><path d="M1880.56 880.421c14.14 4.181 22.06 10.366 22.12 10.416.01.001.01 0 .01-.001v-.002c.01-.081 1.39-10.038 8.62-22.889v-.001l-.01-.001c-14.14-4.179-22.06-10.365-22.12-10.416l-.01.001v.002c-.01.081-1.39 10.04-8.61 22.888v.003" fill="#FFED90"/><path d="M1626.4 937.065c14.13 4.18 22.06 10.363 22.12 10.415.01.002.01 0 .01-.001v-.002c.01-.083 1.39-10.039 8.62-22.889v-.001l-.01-.002c-14.13-4.179-22.06-10.363-22.12-10.415-.01-.001 0 .001-.01.001v.002c-.01.084-1.39 10.04-8.61 22.889v.003" fill="#EFE1D4"/><path d="M1626.4 937.065c14.13 4.18 22.06 10.363 22.12 10.415.01.002.01 0 .01-.001v-.002c.01-.083 1.39-10.039 8.62-22.889v-.001l-.01-.002c-14.13-4.179-22.06-10.363-22.12-10.415-.01-.001 0 .001-.01.001v.002c-.01.084-1.39 10.04-8.61 22.889v.003" fill="#EFE1D4"/><path d="M1161.26 1127.65h.01c14.13 4.18 22.06 10.36 22.12 10.42h.01v-.01c.01-.08 1.39-10.04 8.61-22.89h.01-.01c-14.13-4.18-22.06-10.36-22.12-10.41h-.01c-.01.08-1.39 10.04-8.62 22.89z" fill="#FFED90"/><path d="M1161.26 1127.65h.01c14.13 4.18 22.06 10.36 22.12 10.42h.01v-.01c.01-.08 1.39-10.04 8.61-22.89h.01-.01c-14.13-4.18-22.06-10.36-22.12-10.41h-.01c-.01.08-1.39 10.04-8.62 22.89zM1717.52 900.086l.01.001c14.13 4.181 22.06 10.364 22.12 10.416.01.001.01-.001.01-.001v-.002c.01-.084 1.39-10.04 8.61-22.889.01-.001.01-.001 0-.002v-.001c-14.14-4.179-22.06-10.363-22.12-10.415-.01-.002-.01 0-.01.001v.002c-.01.083-1.39 10.04-8.62 22.889v.001z" fill="#FFED90"/><path d="M1717.52 900.086l.01.001c14.13 4.181 22.06 10.364 22.12 10.416.01.001.01-.001.01-.001v-.002c.01-.084 1.39-10.04 8.61-22.889.01-.001.01-.001 0-.002v-.001c-14.14-4.179-22.06-10.363-22.12-10.415-.01-.002-.01 0-.01.001v.002c-.01.083-1.39 10.04-8.62 22.889v.001z" fill="#FFED90"/><path d="M1535.27 974.042v.001c14.13 4.18 22.06 10.363 22.12 10.415.01.001.01 0 .01-.001v-.002c.01-.084 1.39-10.04 8.62-22.89v-.002-.001c-14.14-4.179-22.07-10.362-22.13-10.414 0-.002 0 0-.01.001v.002c-.01.083-1.39 10.04-8.61 22.889v.002z" fill="#84CFCB"/><path d="M1535.27 974.042v.001c14.13 4.18 22.06 10.363 22.12 10.415.01.001.01 0 .01-.001v-.002c.01-.084 1.39-10.04 8.62-22.89v-.002-.001c-14.14-4.179-22.07-10.362-22.13-10.414 0-.002 0 0-.01.001v.002c-.01.083-1.39 10.04-8.61 22.889v.002z" fill="#84CFCB"/><path d="M1444.14 1011.02c14.14 4.18 22.07 10.37 22.13 10.41 0 .01 0 0 0 0 .01-.07 1.38-10.03 8.62-22.887v-.002l-.01-.001c-14.14-4.181-22.06-10.37-22.12-10.415l-.01.001v.002c-.01.073-1.38 10.032-8.61 22.892" fill="#FFED90"/><path d="M1444.14 1011.02c14.14 4.18 22.07 10.37 22.13 10.41 0 .01 0 0 0 0 .01-.07 1.38-10.03 8.62-22.887v-.002l-.01-.001c-14.14-4.181-22.06-10.37-22.12-10.415l-.01.001v.002c-.01.073-1.38 10.032-8.61 22.892" fill="#FFED90"/><path d="M1353.01 1048c14.14 4.18 22.06 10.36 22.13 10.41.02-.08 1.39-10.04 8.62-22.89-14.14-4.18-22.07-10.37-22.13-10.42h-.01c-.01.09-1.38 10.04-8.61 22.89v.01z" fill="#EFE1D4"/><path d="M1353.01 1048c14.14 4.18 22.06 10.36 22.13 10.41.02-.08 1.39-10.04 8.62-22.89-14.14-4.18-22.07-10.37-22.13-10.42h-.01c-.01.09-1.38 10.04-8.61 22.89v.01z" fill="#EFE1D4"/><path d="M1261.88 1084.97c14.15 4.19 22.07 10.37 22.13 10.42h.01c.01-.08 1.38-10.04 8.61-22.89v-.01c-14.15-4.18-22.07-10.37-22.13-10.41h-.01c-.01.08-1.38 10.04-8.61 22.89z" fill="#84CFCB"/><path d="M1261.88 1084.97c14.15 4.19 22.07 10.37 22.13 10.42h.01c.01-.08 1.38-10.04 8.61-22.89v-.01c-14.15-4.18-22.07-10.37-22.13-10.41h-.01c-.01.08-1.38 10.04-8.61 22.89zM1818.52 858.333v.001c14.15 4.182 22.07 10.369 22.13 10.415v-.001c.01-.001.01 0 .01-.002.01-.073 1.38-10.033 8.61-22.889v-.001-.002c-14.14-4.181-22.07-10.369-22.13-10.415v.003c-.01.073-1.39 10.033-8.62 22.889v.002z" fill="#84CFCB"/><path d="M1818.52 858.333v.001c14.15 4.182 22.07 10.369 22.13 10.415v-.001c.01-.001.01 0 .01-.002.01-.073 1.38-10.033 8.61-22.889v-.001-.002c-14.14-4.181-22.07-10.369-22.13-10.415v.003c-.01.073-1.39 10.033-8.62 22.889v.002zM1099.23 1105.56h.01c14.13 4.18 22.06 10.37 22.12 10.42h.01v-.01c.01-.08 1.38-10.04 8.61-22.89-14.14-4.18-22.06-10.36-22.12-10.41h-.01c-.01.08-1.39 10.04-8.62 22.89z" fill="#84CFCB"/><path d="M1099.23 1105.56h.01c14.13 4.18 22.06 10.37 22.12 10.42h.01v-.01c.01-.08 1.38-10.04 8.61-22.89-14.14-4.18-22.06-10.36-22.12-10.41h-.01c-.01.08-1.39 10.04-8.62 22.89zM1655.49 877.997v.001c14.14 4.18 22.07 10.363 22.13 10.415l.01-.001v-.002c.01-.084 1.38-10.04 8.61-22.889v-.002-.001c-14.14-4.179-22.06-10.363-22.13-10.415v.003c-.01.083-1.39 10.041-8.62 22.889v.002z" fill="#84CFCB"/><path d="M1655.49 877.997v.001c14.14 4.18 22.07 10.363 22.13 10.415l.01-.001v-.002c.01-.084 1.38-10.04 8.61-22.889v-.002-.001c-14.14-4.179-22.06-10.363-22.13-10.415v.003c-.01.083-1.39 10.041-8.62 22.889v.002z" fill="#84CFCB"/><path d="M1190.36 1068.58v.01c14.14 4.18 22.06 10.36 22.13 10.41h.01c.01-.09 1.38-10.04 8.61-22.89-14.14-4.18-22.06-10.37-22.13-10.42-.02.09-1.39 10.04-8.62 22.89z" fill="#EFE1D4"/><path d="M1190.36 1068.58v.01c14.14 4.18 22.06 10.36 22.13 10.41h.01c.01-.09 1.38-10.04 8.61-22.89-14.14-4.18-22.06-10.37-22.13-10.42-.02.09-1.39 10.04-8.62 22.89zM1746.62 841.02v.001c14.14 4.181 22.06 10.363 22.13 10.415v-.001c.01-.001.01.001.01-.002.01-.083 1.38-10.039 8.61-22.889v-.001-.001c-14.14-4.18-22.06-10.364-22.13-10.416v.001c0 .001-.01 0-.01.003-.01.083-1.38 10.04-8.61 22.888v.002z" fill="#EFE1D4"/><path d="M1746.62 841.02v.001c14.14 4.181 22.06 10.363 22.13 10.415v-.001c.01-.001.01.001.01-.002.01-.083 1.38-10.039 8.61-22.889v-.001-.001c-14.14-4.18-22.06-10.364-22.13-10.416v.001c0 .001-.01 0-.01.003-.01.083-1.38 10.04-8.61 22.888v.002z" fill="#EFE1D4"/><path d="M1008.11 1142.54c14.13 4.18 22.06 10.36 22.12 10.41.01.01.01 0 .01 0 .01-.08 1.39-10.04 8.62-22.89-14.14-4.18-22.07-10.36-22.13-10.42l-.01.01s0-.01 0 0c-.01.08-1.39 10.04-8.61 22.89z" fill="#FFED90"/><path d="M1008.11 1142.54c14.13 4.18 22.06 10.36 22.12 10.41.01.01.01 0 .01 0 .01-.08 1.39-10.04 8.62-22.89-14.14-4.18-22.07-10.36-22.13-10.42l-.01.01s0-.01 0 0c-.01.08-1.39 10.04-8.61 22.89zM1564.37 914.974v.001c14.13 4.181 22.06 10.364 22.12 10.415.01.002.01 0 .01-.001v-.002c.01-.083 1.39-10.039 8.62-22.889v-.001l-.01-.001c-14.13-4.18-22.06-10.364-22.12-10.416l-.01.002v.002c-.01.083-1.39 10.04-8.61 22.889v.001z" fill="#FFED90"/><path d="M1564.37 914.974v.001c14.13 4.181 22.06 10.364 22.12 10.415.01.002.01 0 .01-.001v-.002c.01-.083 1.39-10.039 8.62-22.889v-.001l-.01-.001c-14.13-4.18-22.06-10.364-22.12-10.416l-.01.002v.002c-.01.083-1.39 10.04-8.61 22.889v.001z" fill="#FFED90"/><path d="M1473.24 951.95v.001c14.15 4.184 22.08 10.376 22.13 10.415v-.001-.001c.01-.063 1.38-10.026 8.62-22.889v-.002l-.01-.001c-14.15-4.184-22.07-10.376-22.12-10.415l-.01.001v.001c-.01.063-1.38 10.027-8.61 22.889v.002z" fill="#EFE1D4"/><path d="M1473.24 951.95v.001c14.15 4.184 22.08 10.376 22.13 10.415v-.001-.001c.01-.063 1.38-10.026 8.62-22.889v-.002l-.01-.001c-14.15-4.184-22.07-10.376-22.12-10.415l-.01.001v.001c-.01.063-1.38 10.027-8.61 22.889v.002z" fill="#EFE1D4"/><path d="M1382.11 988.927v.001c14.14 4.181 22.06 10.365 22.13 10.415v-.001c0-.001.01.001.01-.002.01-.081 1.38-10.038 8.61-22.888v-.002-.001c-14.14-4.18-22.06-10.365-22.13-10.416v.002s-.01-.001-.01.002c-.01.081-1.38 10.038-8.61 22.888v.002z" fill="#84CFCB"/><path d="M1382.11 988.927v.001c14.14 4.181 22.06 10.365 22.13 10.415v-.001c0-.001.01.001.01-.002.01-.081 1.38-10.038 8.61-22.888v-.002-.001c-14.14-4.18-22.06-10.365-22.13-10.416v.002s-.01-.001-.01.002c-.01.081-1.38 10.038-8.61 22.888v.002z" fill="#84CFCB"/><path d="M1290.98 1025.9c14.14 4.18 22.07 10.37 22.13 10.42h.01c.01-.08 1.38-10.04 8.61-22.89-14.14-4.18-22.06-10.37-22.13-10.42-.02.08-1.39 10.04-8.62 22.89" fill="#FFED90"/><path d="M1290.98 1025.9c14.14 4.18 22.07 10.37 22.13 10.42h.01c.01-.08 1.38-10.04 8.61-22.89-14.14-4.18-22.06-10.37-22.13-10.42-.02.08-1.39 10.04-8.62 22.89M1847.63 799.264c14.13 4.181 22.06 10.365 22.12 10.416.01.001.01 0 .01-.001v-.002c.01-.081 1.38-10.038 8.61-22.889v-.002-.001c-14.14-4.18-22.06-10.365-22.12-10.415-.01-.002-.01 0-.01.001v.002c-.01.081-1.39 10.038-8.61 22.888v.003" fill="#FFED90"/><path d="M1847.63 799.264c14.13 4.181 22.06 10.365 22.12 10.416.01.001.01 0 .01-.001v-.002c.01-.081 1.38-10.038 8.61-22.889v-.002-.001c-14.14-4.18-22.06-10.365-22.12-10.415-.01-.002-.01 0-.01.001v.002c-.01.081-1.39 10.038-8.61 22.888v.003" fill="#FFED90"/><path d="M1037.2 1083.47c14.14 4.18 22.07 10.36 22.13 10.42h.01v-.01c.01-.08 1.38-10.04 8.61-22.89-14.14-4.18-22.06-10.36-22.12-10.41h-.01c-.01.08-1.39 10.04-8.61 22.89h-.01" fill="#EFE1D4"/><path d="M1037.2 1083.47c14.14 4.18 22.07 10.36 22.13 10.42h.01v-.01c.01-.08 1.38-10.04 8.61-22.89-14.14-4.18-22.06-10.36-22.12-10.41h-.01c-.01.08-1.39 10.04-8.61 22.89h-.01M1593.46 855.907c14.14 4.178 22.07 10.363 22.13 10.415 0 .002 0 0 .01-.001v-.002c.01-.083 1.38-10.041 8.61-22.889v-.002-.001c-14.14-4.179-22.06-10.363-22.12-10.415-.01-.001-.01 0-.01.001v.002c-.01.084-1.39 10.04-8.62 22.888v.004" fill="#EFE1D4"/><path d="M1593.46 855.907c14.14 4.178 22.07 10.363 22.13 10.415 0 .002 0 0 .01-.001v-.002c.01-.083 1.38-10.041 8.61-22.889v-.002-.001c-14.14-4.179-22.06-10.363-22.12-10.415-.01-.001-.01 0-.01.001v.002c-.01.084-1.39 10.04-8.62 22.888v.004" fill="#EFE1D4"/><path d="M1128.33 1046.49h.01c14.13 4.18 22.06 10.37 22.12 10.42h.01c.01-.09 1.38-10.05 8.61-22.89v-.01c-14.14-4.18-22.06-10.36-22.12-10.41h-.01c-.01.09-1.39 10.04-8.62 22.89z" fill="#FFED90"/><path d="M1128.33 1046.49h.01c14.13 4.18 22.06 10.37 22.12 10.42h.01c.01-.09 1.38-10.05 8.61-22.89v-.01c-14.14-4.18-22.06-10.36-22.12-10.41h-.01c-.01.09-1.39 10.04-8.62 22.89zM1684.59 818.929v.001c14.14 4.179 22.07 10.364 22.13 10.415 0 .002 0 0 .01-.001v-.002c.01-.083 1.38-10.041 8.61-22.889v-.001-.001c-14.14-4.18-22.06-10.364-22.12-10.415-.01-.002-.01 0-.01.001v.002c-.01.083-1.39 10.04-8.62 22.889v.001z" fill="#FFED90"/><path d="M1684.59 818.929v.001c14.14 4.179 22.07 10.364 22.13 10.415 0 .002 0 0 .01-.001v-.002c.01-.083 1.38-10.041 8.61-22.889v-.001-.001c-14.14-4.18-22.06-10.364-22.12-10.415-.01-.002-.01 0-.01.001v.002c-.01.083-1.39 10.04-8.62 22.889v.001z" fill="#FFED90"/><path d="M946.075 1120.45h.001c14.136 4.18 22.061 10.36 22.128 10.41.001.01.001 0 .004 0h.003c.012-.08 1.386-10.04 8.616-22.89h-.001c-14.139-4.18-22.063-10.36-22.129-10.42-.002 0-.002 0-.005.01-.002 0-.003-.01-.003 0-.012.08-1.387 10.04-8.614 22.89z" fill="#84CFCB"/><path d="M946.075 1120.45h.001c14.136 4.18 22.061 10.36 22.128 10.41.001.01.001 0 .004 0h.003c.012-.08 1.386-10.04 8.616-22.89h-.001c-14.139-4.18-22.063-10.36-22.129-10.42-.002 0-.002 0-.005.01-.002 0-.003-.01-.003 0-.012.08-1.387 10.04-8.614 22.89zM1502.33 892.884l.01.001c14.13 4.178 22.06 10.363 22.12 10.415 0 .002 0 0 .01-.001v-.002c.01-.083 1.39-10.042 8.62-22.89v-.001-.001c-14.14-4.18-22.07-10.363-22.13-10.415-.01-.001-.01 0-.01.001v.002c-.01.084-1.39 10.04-8.62 22.889v.002z" fill="#84CFCB"/><path d="M1502.33 892.884l.01.001c14.13 4.178 22.06 10.363 22.12 10.415 0 .002 0 0 .01-.001v-.002c.01-.083 1.39-10.042 8.62-22.89v-.001-.001c-14.14-4.18-22.07-10.363-22.13-10.415-.01-.001-.01 0-.01.001v.002c-.01.084-1.39 10.04-8.62 22.889v.002z" fill="#84CFCB"/><path d="M854.947 1157.43c14.145 4.18 22.07 10.37 22.128 10.41h.007c.01-.07 1.38-10.04 8.613-22.89.001 0 .001 0 0 0h-.001c-14.146-4.18-22.069-10.37-22.127-10.42h-.007c-.01.08-1.382 10.04-8.612 22.89l-.001.01" fill="#FFED90"/><path d="M854.947 1157.43c14.145 4.18 22.07 10.37 22.128 10.41h.007c.01-.07 1.38-10.04 8.613-22.89.001 0 .001 0 0 0h-.001c-14.146-4.18-22.069-10.37-22.127-10.42h-.007c-.01.08-1.382 10.04-8.612 22.89l-.001.01M1411.21 929.862c14.14 4.18 22.07 10.37 22.12 10.415.01.002.01 0 .01-.001v-.001c.01-.073 1.38-10.034 8.61-22.889l.01-.002-.01-.001c-14.14-4.181-22.07-10.37-22.12-10.415-.01-.001-.01 0-.01.001v.002c-.01.072-1.38 10.032-8.61 22.888v.003" fill="#FFED90"/><path d="M1411.21 929.862c14.14 4.18 22.07 10.37 22.12 10.415.01.002.01 0 .01-.001v-.001c.01-.073 1.38-10.034 8.61-22.889l.01-.002-.01-.001c-14.14-4.181-22.07-10.37-22.12-10.415-.01-.001-.01 0-.01.001v.002c-.01.072-1.38 10.032-8.61 22.888v.003" fill="#FFED90"/><path d="M1320.08 966.837v.002c14.14 4.179 22.06 10.365 22.13 10.415v-.001-.002c.02-.081 1.39-10.039 8.62-22.889v-.001-.001c-14.14-4.18-22.07-10.365-22.13-10.416v.001c-.01.001-.01 0-.01.002-.01.081-1.38 10.039-8.61 22.889v.001z" fill="#EFE1D4"/><path d="M1320.08 966.837v.002c14.14 4.179 22.06 10.365 22.13 10.415v-.001-.002c.02-.081 1.39-10.039 8.62-22.889v-.001-.001c-14.14-4.18-22.07-10.365-22.13-10.416v.001c-.01.001-.01 0-.01.002-.01.081-1.38 10.039-8.61 22.889v.001zM1876.72 740.197v.001c14.14 4.18 22.06 10.365 22.13 10.416v-.001c.01-.001.01 0 .01-.002.01-.081 1.38-10.04 8.61-22.889v-.001-.001c-14.14-4.18-22.06-10.366-22.13-10.416v.001l-.01.002c-.01.081-1.38 10.039-8.61 22.889v.001z" fill="#EFE1D4"/><path d="M1876.72 740.197v.001c14.14 4.18 22.06 10.365 22.13 10.416v-.001c.01-.001.01 0 .01-.002.01-.081 1.38-10.04 8.61-22.889v-.001-.001c-14.14-4.18-22.06-10.366-22.13-10.416v.001l-.01.002c-.01.081-1.38 10.039-8.61 22.889v.001z" fill="#EFE1D4"/><path d="M1228.95 1003.81v.01c14.14 4.18 22.07 10.37 22.13 10.41.01-.07 1.38-10.04 8.62-22.89v-.002-.001c-14.15-4.182-22.07-10.37-22.13-10.415v.001c-.01.001-.01-.001-.01.001-.01.074-1.38 10.034-8.61 22.886z" fill="#84CFCB"/><path d="M1228.95 1003.81v.01c14.14 4.18 22.07 10.37 22.13 10.41.01-.07 1.38-10.04 8.62-22.89v-.002-.001c-14.15-4.182-22.07-10.37-22.13-10.415v.001c-.01.001-.01-.001-.01.001-.01.074-1.38 10.034-8.61 22.886zM1785.59 777.175v.001c14.15 4.181 22.07 10.37 22.13 10.415v-.001c.01-.001.01.001.01-.002.01-.073 1.38-10.034 8.61-22.889v-.001-.001c-14.15-4.182-22.07-10.37-22.13-10.415v.002c-.01.073-1.39 10.034-8.62 22.889v.002z" fill="#84CFCB"/><path d="M1785.59 777.175v.001c14.15 4.181 22.07 10.37 22.13 10.415v-.001c.01-.001.01.001.01-.002.01-.073 1.38-10.034 8.61-22.889v-.001-.001c-14.15-4.182-22.07-10.37-22.13-10.415v.002c-.01.073-1.39 10.034-8.62 22.889v.002zM1066.3 1024.4c14.14 4.18 22.06 10.37 22.13 10.42h.01c.01-.09 1.38-10.04 8.61-22.89v-.01c-14.14-4.18-22.06-10.36-22.13-10.41-.02.09-1.39 10.04-8.62 22.89z" fill="#84CFCB"/><path d="M1066.3 1024.4c14.14 4.18 22.06 10.37 22.13 10.42h.01c.01-.09 1.38-10.04 8.61-22.89v-.01c-14.14-4.18-22.06-10.36-22.13-10.41-.02.09-1.39 10.04-8.62 22.89zM1622.56 796.839v.002c14.14 4.179 22.06 10.363 22.13 10.415v-.002c.01 0 .01.001.01-.002.01-.083 1.38-10.04 8.61-22.888v-.003-.002c-14.14-4.178-22.06-10.361-22.13-10.413v.003c-.02.083-1.39 10.04-8.62 22.886v.004z" fill="#84CFCB"/><path d="M1622.56 796.839v.002c14.14 4.179 22.06 10.363 22.13 10.415v-.002c.01 0 .01.001.01-.002.01-.083 1.38-10.04 8.61-22.888v-.003-.002c-14.14-4.178-22.06-10.361-22.13-10.413v.003c-.02.083-1.39 10.04-8.62 22.886v.004z" fill="#84CFCB"/><path d="M1157.43 987.426v.002c14.14 4.179 22.06 10.363 22.13 10.414v-.001c.01-.001.01.001.01-.002.01-.083 1.38-10.04 8.61-22.888v-.003-.002c-14.14-4.178-22.06-10.362-22.13-10.413v.001c0 .001-.01-.001-.01.002-.01.083-1.38 10.04-8.61 22.886v.004z" fill="#EFE1D4"/><path d="M1157.43 987.426v.002c14.14 4.179 22.06 10.363 22.13 10.414v-.001c.01-.001.01.001.01-.002.01-.083 1.38-10.04 8.61-22.888v-.003-.002c-14.14-4.178-22.06-10.362-22.13-10.413v.001c0 .001-.01-.001-.01.002-.01.083-1.38 10.04-8.61 22.886v.004zM1713.69 759.862v.002c14.14 4.179 22.06 10.363 22.13 10.415v-.002c0-.001.01.001.01-.002.01-.083 1.38-10.04 8.61-22.888v-.003-.002c-14.14-4.178-22.06-10.362-22.13-10.413v.001c0 .001-.01-.001-.01.002-.01.083-1.38 10.04-8.61 22.886v.004z" fill="#EFE1D4"/><path d="M1713.69 759.862v.002c14.14 4.179 22.06 10.363 22.13 10.415v-.002c0-.001.01.001.01-.002.01-.083 1.38-10.04 8.61-22.888v-.003-.002c-14.14-4.178-22.06-10.362-22.13-10.413v.001c0 .001-.01-.001-.01.002-.01.083-1.38 10.04-8.61 22.886v.004z" fill="#EFE1D4"/><path d="M975.175 1061.38h.002c14.134 4.18 22.06 10.36 22.127 10.42.002 0 .001 0 .004-.01h.003c.012-.08 1.384-10.04 8.609-22.89.01 0 .01 0 0 0-14.135-4.18-22.057-10.36-22.123-10.41-.002-.01-.002 0-.004 0h-.004c-.012.08-1.388 10.04-8.614 22.89-.001 0-.001 0 0 0z" fill="#FFED90"/><path d="M975.175 1061.38h.002c14.134 4.18 22.06 10.36 22.127 10.42.002 0 .001 0 .004-.01h.003c.012-.08 1.384-10.04 8.609-22.89.01 0 .01 0 0 0-14.135-4.18-22.057-10.36-22.123-10.41-.002-.01-.002 0-.004 0h-.004c-.012.08-1.388 10.04-8.614 22.89-.001 0-.001 0 0 0zM1531.43 833.815l.01.002c14.13 4.179 22.06 10.363 22.12 10.415.01.002 0 0 .01-.001v-.002c.01-.083 1.38-10.04 8.61-22.888v-.003-.002c-14.14-4.178-22.06-10.362-22.12-10.414-.01-.001-.01.001-.01.001v.002c-.01.084-1.39 10.041-8.62 22.887v.003z" fill="#FFED90"/><path d="M1531.43 833.815l.01.002c14.13 4.179 22.06 10.363 22.12 10.415.01.002 0 0 .01-.001v-.002c.01-.083 1.38-10.04 8.61-22.888v-.003-.002c-14.14-4.178-22.06-10.362-22.12-10.414-.01-.001-.01.001-.01.001v.002c-.01.084-1.39 10.041-8.62 22.887v.003z" fill="#FFED90"/><path d="M884.047 1098.36h.002c14.151 4.18 22.077 10.37 22.127 10.41h.006c.008-.06 1.376-10.03 8.613-22.89.001 0 .001 0 0 0h-.002c-14.153-4.19-22.076-10.38-22.126-10.42h-.003c-.002.01-.003 0-.003.01-.008.06-1.379 10.02-8.614 22.88v.01z" fill="#EFE1D4"/><path d="M884.047 1098.36h.002c14.151 4.18 22.077 10.37 22.127 10.41h.006c.008-.06 1.376-10.03 8.613-22.89.001 0 .001 0 0 0h-.002c-14.153-4.19-22.076-10.38-22.126-10.42h-.003c-.002.01-.003 0-.003.01-.008.06-1.379 10.02-8.614 22.88v.01zM1440.31 870.792v.002c14.15 4.183 22.08 10.376 22.13 10.415v-.001-.001c.01-.063 1.38-10.028 8.61-22.889.01-.001.01-.002 0-.003v-.002c-14.15-4.182-22.07-10.375-22.12-10.414-.01-.001 0 .001-.01.001v.002c-.01.062-1.38 10.026-8.61 22.887v.003z" fill="#EFE1D4"/><path d="M1440.31 870.792v.002c14.15 4.183 22.08 10.376 22.13 10.415v-.001-.001c.01-.063 1.38-10.028 8.61-22.889.01-.001.01-.002 0-.003v-.002c-14.15-4.182-22.07-10.375-22.12-10.414-.01-.001 0 .001-.01.001v.002c-.01.062-1.38 10.026-8.61 22.887v.003z" fill="#EFE1D4"/><path d="M792.919 1135.33h.003c14.136 4.18 22.061 10.37 22.126 10.42h.007c.011-.08 1.383-10.04 8.613-22.89-.001-.01-.001-.01-.003-.01-14.138-4.17-22.06-10.36-22.125-10.41h-.007c-.011.08-1.386 10.04-8.613 22.89h-.001z" fill="#84CFCB"/><path d="M792.919 1135.33h.003c14.136 4.18 22.061 10.37 22.126 10.42h.007c.011-.08 1.383-10.04 8.613-22.89-.001-.01-.001-.01-.003-.01-14.138-4.17-22.06-10.36-22.125-10.41h-.007c-.011.08-1.386 10.04-8.613 22.89h-.001zM1349.18 907.768v.002c14.14 4.18 22.06 10.365 22.13 10.416v-.002-.001c.02-.082 1.39-10.039 8.62-22.888v-.003-.003c-14.14-4.178-22.07-10.363-22.13-10.413v.001c-.01.001-.01 0-.01.002-.01.081-1.38 10.038-8.61 22.886v.003z" fill="#84CFCB"/><path d="M1349.18 907.768v.002c14.14 4.18 22.06 10.365 22.13 10.416v-.002-.001c.02-.082 1.39-10.039 8.62-22.888v-.003-.003c-14.14-4.178-22.07-10.363-22.13-10.413v.001c-.01.001-.01 0-.01.002-.01.081-1.38 10.038-8.61 22.886v.003z" fill="#84CFCB"/><path d="M1258.05 944.746c14.14 4.18 22.07 10.366 22.13 10.416v-.001c.01-.001.01 0 .01-.002.01-.081 1.38-10.039 8.61-22.888v-.003-.002c-14.14-4.178-22.06-10.363-22.13-10.414v.003c-.02.082-1.39 10.038-8.62 22.885v.006" fill="#FFED90"/><path d="M1258.05 944.746c14.14 4.18 22.07 10.366 22.13 10.416v-.001c.01-.001.01 0 .01-.002.01-.081 1.38-10.039 8.61-22.888v-.003-.002c-14.14-4.178-22.06-10.363-22.13-10.414v.003c-.02.082-1.39 10.038-8.62 22.885v.006M1814.7 718.107c14.13 4.179 22.06 10.365 22.12 10.416l.01-.002v-.002c.01-.081 1.38-10.038 8.61-22.887v-.004-.002c-14.14-4.178-22.06-10.363-22.12-10.413-.01-.002-.01 0-.01.001v.002c-.01.081-1.39 10.037-8.61 22.884-.01.002-.01.005 0 .007" fill="#FFED90"/><path d="M1814.7 718.107c14.13 4.179 22.06 10.365 22.12 10.416l.01-.002v-.002c.01-.081 1.38-10.038 8.61-22.887v-.004-.002c-14.14-4.178-22.06-10.363-22.12-10.413-.01-.002-.01 0-.01.001v.002c-.01.081-1.39 10.037-8.61 22.884-.01.002-.01.005 0 .007" fill="#FFED90"/><path d="M1004.27 1002.31c14.14 4.18 22.07 10.37 22.13 10.42h.01c.01-.09 1.38-10.05 8.61-22.895v-.001-.002c-14.14-4.177-22.06-10.361-22.13-10.413v.003c-.01.083-1.39 10.04-8.62 22.888" fill="#EFE1D4"/><path d="M1004.27 1002.31c14.14 4.18 22.07 10.37 22.13 10.42h.01c.01-.09 1.38-10.05 8.61-22.895v-.001-.002c-14.14-4.177-22.06-10.361-22.13-10.413v.003c-.01.083-1.39 10.04-8.62 22.888M1560.53 774.748c14.14 4.18 22.07 10.365 22.13 10.417l.01-.001v-.002c.01-.084 1.38-10.041 8.61-22.891v-.001-.001c-14.14-4.178-22.06-10.362-22.13-10.414v.003c-.01.083-1.39 10.04-8.62 22.887v.003" fill="#EFE1D4"/><path d="M1560.53 774.748c14.14 4.18 22.07 10.365 22.13 10.417l.01-.001v-.002c.01-.084 1.38-10.041 8.61-22.891v-.001-.001c-14.14-4.178-22.06-10.362-22.13-10.414v.003c-.01.083-1.39 10.04-8.62 22.887v.003" fill="#EFE1D4"/><path d="M1095.4 965.334v.001c14.14 4.18 22.07 10.365 22.13 10.417l.01-.001v-.002c.01-.084 1.38-10.041 8.61-22.891v-.002-.001c-14.14-4.177-22.06-10.361-22.13-10.413v.003c-.01.083-1.39 10.04-8.62 22.887v.002z" fill="#FFED90"/><path d="M1095.4 965.334v.001c14.14 4.18 22.07 10.365 22.13 10.417l.01-.001v-.002c.01-.084 1.38-10.041 8.61-22.891v-.002-.001c-14.14-4.177-22.06-10.361-22.13-10.413v.003c-.01.083-1.39 10.04-8.62 22.887v.002zM1651.66 737.77v.001c14.14 4.18 22.07 10.365 22.13 10.417l.01-.001v-.002c.01-.084 1.38-10.041 8.61-22.891v-.002-.001c-14.14-4.177-22.06-10.361-22.13-10.413v.003c-.01.083-1.39 10.04-8.62 22.887v.002z" fill="#FFED90"/><path d="M1651.66 737.77v.001c14.14 4.18 22.07 10.365 22.13 10.417l.01-.001v-.002c.01-.084 1.38-10.041 8.61-22.891v-.002-.001c-14.14-4.177-22.06-10.361-22.13-10.413v.003c-.01.083-1.39 10.04-8.62 22.887v.002z" fill="#FFED90"/><path d="M913.143 1039.29h.002c14.137 4.18 22.061 10.36 22.128 10.42h.004c.002-.01.003 0 .003-.01.012-.08 1.386-10.04 8.615-22.89 0 0 .001 0 0 0h-.001c-14.138-4.18-22.062-10.36-22.128-10.41-.002-.01-.002 0-.004 0h-.004c-.012.08-1.387 10.04-8.615 22.89z" fill="#84CFCB"/><path d="M913.143 1039.29h.002c14.137 4.18 22.061 10.36 22.128 10.42h.004c.002-.01.003 0 .003-.01.012-.08 1.386-10.04 8.615-22.89 0 0 .001 0 0 0h-.001c-14.138-4.18-22.062-10.36-22.128-10.41-.002-.01-.002 0-.004 0h-.004c-.012.08-1.387 10.04-8.615 22.89zM1469.4 811.724v.002c14.14 4.18 22.07 10.365 22.13 10.416 0 .002 0 0 .01-.001v-.002c.01-.083 1.39-10.041 8.61-22.891 0-.001.01-.001 0-.002v-.001c-14.13-4.177-22.06-10.361-22.12-10.413-.01-.001-.01.001-.01.002v.002c-.01.083-1.39 10.04-8.62 22.887v.001z" fill="#84CFCB"/><path d="M1469.4 811.724v.002c14.14 4.18 22.07 10.365 22.13 10.416 0 .002 0 0 .01-.001v-.002c.01-.083 1.39-10.041 8.61-22.891 0-.001.01-.001 0-.002v-.001c-14.13-4.177-22.06-10.361-22.12-10.413-.01-.001-.01.001-.01.002v.002c-.01.083-1.39 10.04-8.62 22.887v.001z" fill="#84CFCB"/><path d="M822.016 1076.27c14.144 4.18 22.07 10.37 22.128 10.41.001.01.001 0 .003 0h.004c.009-.07 1.38-10.03 8.613-22.89h-.001c-14.146-4.18-22.069-10.37-22.127-10.42-.002 0-.002 0-.004.01-.002 0-.003-.01-.003 0-.01.07-1.382 10.03-8.613 22.88v.01" fill="#FFED90"/><path d="M822.016 1076.27c14.144 4.18 22.07 10.37 22.128 10.41.001.01.001 0 .003 0h.004c.009-.07 1.38-10.03 8.613-22.89h-.001c-14.146-4.18-22.069-10.37-22.127-10.42-.002 0-.002 0-.004.01-.002 0-.003-.01-.003 0-.01.07-1.382 10.03-8.613 22.88v.01M1378.28 848.702c14.14 4.182 22.07 10.372 22.12 10.417 0 .002 0 0 .01-.001v-.001c.01-.073 1.38-10.035 8.61-22.891v-.002-.001c-14.14-4.18-22.07-10.368-22.12-10.413-.01-.002-.01 0-.01.001v.001c-.01.073-1.38 10.033-8.61 22.887-.01.001-.01.002 0 .003" fill="#FFED90"/><path d="M1378.28 848.702c14.14 4.182 22.07 10.372 22.12 10.417 0 .002 0 0 .01-.001v-.001c.01-.073 1.38-10.035 8.61-22.891v-.002-.001c-14.14-4.18-22.07-10.368-22.12-10.413-.01-.002-.01 0-.01.001v.001c-.01.073-1.38 10.033-8.61 22.887-.01.001-.01.002 0 .003" fill="#FFED90"/><path d="M730.887 1113.24c14.138 4.18 22.064 10.37 22.128 10.42h.008c.011-.08 1.383-10.04 8.612-22.89l-.001-.01c-14.139-4.17-22.061-10.36-22.126-10.41h-.008c-.011.08-1.385 10.04-8.613 22.89" fill="#EFE1D4"/><path d="M730.887 1113.24c14.138 4.18 22.064 10.37 22.128 10.42h.008c.011-.08 1.383-10.04 8.612-22.89l-.001-.01c-14.139-4.17-22.061-10.36-22.126-10.41h-.008c-.011.08-1.385 10.04-8.613 22.89M1287.15 885.679c14.14 4.181 22.06 10.367 22.13 10.417v-.001-.002c.01-.081 1.39-10.039 8.61-22.89l.01-.002-.01-.001c-14.14-4.178-22.06-10.363-22.12-10.414l-.01.002v.002c-.01.081-1.39 10.038-8.61 22.886v.003" fill="#EFE1D4"/><path d="M1287.15 885.679c14.14 4.181 22.06 10.367 22.13 10.417v-.001-.002c.01-.081 1.39-10.039 8.61-22.89l.01-.002-.01-.001c-14.14-4.178-22.06-10.363-22.12-10.414l-.01.002v.002c-.01.081-1.39 10.038-8.61 22.886v.003M1843.79 659.039c14.14 4.181 22.06 10.367 22.13 10.417v-.001c0-.001.01 0 .01-.002.01-.081 1.38-10.039 8.61-22.89v-.002-.001c-14.14-4.178-22.06-10.363-22.13-10.414v.001c-.01.001-.01 0-.01.002-.01.082-1.38 10.039-8.61 22.887v.003" fill="#EFE1D4"/><path d="M1843.79 659.039c14.14 4.181 22.06 10.367 22.13 10.417v-.001c0-.001.01 0 .01-.002.01-.081 1.38-10.039 8.61-22.89v-.002-.001c-14.14-4.178-22.06-10.363-22.13-10.414v.001c-.01.001-.01 0-.01.002-.01.082-1.38 10.039-8.61 22.887v.003" fill="#EFE1D4"/><path d="M639.757 1150.22h.001c14.144 4.18 22.07 10.37 22.128 10.42h.004c.002 0 .003 0 .003-.01.01-.07 1.381-10.03 8.613-22.89h-.001c-14.145-4.18-22.069-10.37-22.127-10.41h-.007c-.01.07-1.383 10.03-8.614 22.89z" fill="#84CFCB"/><path d="M639.757 1150.22h.001c14.144 4.18 22.07 10.37 22.128 10.42h.004c.002 0 .003 0 .003-.01.01-.07 1.381-10.03 8.613-22.89h-.001c-14.145-4.18-22.069-10.37-22.127-10.41h-.007c-.01.07-1.383 10.03-8.614 22.89zM1196.02 922.655v.001c14.14 4.182 22.07 10.372 22.13 10.417v-.001-.002c.01-.073 1.38-10.034 8.62-22.89v-.002l-.01-.001c-14.14-4.18-22.06-10.368-22.12-10.414l-.01.001v.002c-.01.073-1.38 10.034-8.61 22.888v.001z" fill="#84CFCB"/><path d="M1196.02 922.655v.001c14.14 4.182 22.07 10.372 22.13 10.417v-.001-.002c.01-.073 1.38-10.034 8.62-22.89v-.002l-.01-.001c-14.14-4.18-22.06-10.368-22.12-10.414l-.01.001v.002c-.01.073-1.38 10.034-8.61 22.888v.001zM1752.66 696.016v.001c14.14 4.182 22.07 10.371 22.13 10.416v-.001s.01.001.01-.001c.01-.074 1.38-10.035 8.61-22.891v-.002-.001c-14.15-4.18-22.07-10.368-22.13-10.413v.001c-.01.001-.01-.001-.01.002-.01.073-1.38 10.033-8.61 22.887v.002z" fill="#84CFCB"/><path d="M1752.66 696.016v.001c14.14 4.182 22.07 10.371 22.13 10.416v-.001s.01.001.01-.001c.01-.074 1.38-10.035 8.61-22.891v-.002-.001c-14.15-4.18-22.07-10.368-22.13-10.413v.001c-.01.001-.01-.001-.01.002-.01.073-1.38 10.033-8.61 22.887v.002z" fill="#84CFCB"/><path d="M1816.32 1143.56c14.14 4.18 22.06 10.37 22.13 10.42 0 0 .01 0 .01-.01.01-.08 1.38-10.03 8.61-22.88v-.01c-14.14-4.18-22.06-10.36-22.13-10.41h-.01c-.01.08-1.38 10.04-8.61 22.89z" fill="#FFED90"/><path d="M1816.32 1143.56c14.14 4.18 22.06 10.37 22.13 10.42 0 0 .01 0 .01-.01.01-.08 1.38-10.03 8.61-22.88v-.01c-14.14-4.18-22.06-10.36-22.13-10.41h-.01c-.01.08-1.38 10.04-8.61 22.89z" fill="#FFED90"/><path d="M1754.29 1121.47c14.13 4.18 22.06 10.37 22.13 10.42v-.01c.02-.08 1.39-10.03 8.62-22.88v-.01c-14.14-4.17-22.06-10.36-22.13-10.41h-.01c-.01.08-1.39 10.04-8.61 22.89z" fill="#84CFCB"/><path d="M1754.29 1121.47c14.13 4.18 22.06 10.37 22.13 10.42v-.01c.02-.08 1.39-10.03 8.62-22.88v-.01c-14.14-4.17-22.06-10.36-22.13-10.41h-.01c-.01.08-1.39 10.04-8.61 22.89z" fill="#84CFCB"/><path d="M1845.42 1084.5c14.13 4.18 22.06 10.36 22.12 10.41h.01c.01-.09 1.39-10.04 8.62-22.89h-.01c-14.13-4.18-22.06-10.37-22.12-10.42h-.01c-.01.09-1.39 10.05-8.61 22.89-.01 0-.01 0 0 .01z" fill="#EFE1D4"/><path d="M1845.42 1084.5c14.13 4.18 22.06 10.36 22.12 10.41h.01c.01-.09 1.39-10.04 8.62-22.89h-.01c-14.13-4.18-22.06-10.37-22.12-10.42h-.01c-.01.09-1.39 10.05-8.61 22.89-.01 0-.01 0 0 .01z" fill="#EFE1D4"/><path d="M1663.16 1158.45c14.14 4.18 22.06 10.36 22.13 10.41 0 .01 0 0 0 0h.01c.01-.08 1.38-10.04 8.61-22.89-14.14-4.18-22.06-10.36-22.13-10.42v.01h-.01c-.01.08-1.38 10.04-8.61 22.89z" fill="#FFED90"/><path d="M1663.16 1158.45c14.14 4.18 22.06 10.36 22.13 10.41 0 .01 0 0 0 0h.01c.01-.08 1.38-10.04 8.61-22.89-14.14-4.18-22.06-10.36-22.13-10.42v.01h-.01c-.01.08-1.38 10.04-8.61 22.89z" fill="#FFED90"/><path d="M1692.26 1099.38c14.14 4.18 22.06 10.37 22.13 10.42v-.01c.02-.08 1.39-10.04 8.62-22.88v-.01c-14.14-4.18-22.06-10.36-22.13-10.41h-.01c-.01.08-1.38 10.04-8.61 22.89" fill="#EFE1D4"/><path d="M1692.26 1099.38c14.14 4.18 22.06 10.37 22.13 10.42v-.01c.02-.08 1.39-10.04 8.62-22.88v-.01c-14.14-4.18-22.06-10.36-22.13-10.41h-.01c-.01.08-1.38 10.04-8.61 22.89" fill="#EFE1D4"/><path d="M1783.39 1062.4c14.13 4.18 22.06 10.37 22.13 10.42.02-.09 1.39-10.04 8.62-22.89v-.01c-14.14-4.17-22.06-10.36-22.13-10.41h-.01c-.01.09-1.38 10.04-8.61 22.89" fill="#FFED90"/><path d="M1783.39 1062.4c14.13 4.18 22.06 10.37 22.13 10.42.02-.09 1.39-10.04 8.62-22.89v-.01c-14.14-4.17-22.06-10.36-22.13-10.41h-.01c-.01.09-1.38 10.04-8.61 22.89" fill="#FFED90"/><path d="M1601.13 1136.36c14.14 4.18 22.06 10.36 22.13 10.41 0 .01 0 0 0 0 .02-.08 1.39-10.04 8.62-22.89-14.14-4.18-22.06-10.36-22.13-10.42v.01h-.01c-.01.08-1.38 10.04-8.61 22.88v.01" fill="#84CFCB"/><path d="M1601.13 1136.36c14.14 4.18 22.06 10.36 22.13 10.41 0 .01 0 0 0 0 .02-.08 1.39-10.04 8.62-22.89-14.14-4.18-22.06-10.36-22.13-10.42v.01h-.01c-.01.08-1.38 10.04-8.61 22.88v.01M1884.39 1020.65c14.14 4.18 22.07 10.37 22.12 10.42.01 0 .01 0 .01-.01 0 0 0 .01 0 0 .01-.07 1.38-10.03 8.61-22.88.01-.01.01-.01 0-.01-14.14-4.18-22.07-10.368-22.12-10.414-.01-.001-.01.001-.01.001v.002c-.01.073-1.38 10.031-8.61 22.881v.01" fill="#84CFCB"/><path d="M1884.39 1020.65c14.14 4.18 22.07 10.37 22.12 10.42.01 0 .01 0 .01-.01 0 0 0 .01 0 0 .01-.07 1.38-10.03 8.61-22.88.01-.01.01-.01 0-.01-14.14-4.18-22.07-10.368-22.12-10.414-.01-.001-.01.001-.01.001v.002c-.01.073-1.38 10.031-8.61 22.881v.01M1721.36 1040.31v.01c14.13 4.17 22.06 10.36 22.12 10.41h.01c.01-.09 1.39-10.04 8.62-22.89 0-.01-.01-.01-.01-.01-14.13-4.17-22.06-10.36-22.12-10.41h-.01c-.01.09-1.39 10.05-8.61 22.89z" fill="#84CFCB"/><path d="M1721.36 1040.31v.01c14.13 4.17 22.06 10.36 22.12 10.41h.01c.01-.09 1.39-10.04 8.62-22.89 0-.01-.01-.01-.01-.01-14.13-4.17-22.06-10.36-22.12-10.41h-.01c-.01.09-1.39 10.05-8.61 22.89z" fill="#84CFCB"/><path d="M1812.48 1003.34h.01c14.13 4.18 22.06 10.36 22.12 10.41 0 .01 0 0 .01 0 .01-.08 1.38-10.04 8.61-22.888v-.003-.002c-14.14-4.176-22.06-10.361-22.12-10.413-.01-.002-.01 0-.01.001v.002c-.01.083-1.39 10.042-8.62 22.883v.01z" fill="#EFE1D4"/><path d="M1812.48 1003.34h.01c14.13 4.18 22.06 10.36 22.12 10.41 0 .01 0 0 .01 0 .01-.08 1.38-10.04 8.61-22.888v-.003-.002c-14.14-4.176-22.06-10.361-22.12-10.413-.01-.002-.01 0-.01.001v.002c-.01.083-1.39 10.042-8.62 22.883v.01z" fill="#EFE1D4"/><path d="M1630.23 1077.29c14.13 4.18 22.06 10.36 22.13 10.42 0-.01 0 0 .01-.01.01-.08 1.38-10.04 8.61-22.88v-.01c-14.14-4.18-22.06-10.36-22.13-10.41h-.01c-.01.08-1.39 10.04-8.61 22.89z" fill="#FFED90"/><path d="M1630.23 1077.29c14.13 4.18 22.06 10.36 22.13 10.42 0-.01 0 0 .01-.01.01-.08 1.38-10.04 8.61-22.88v-.01c-14.14-4.18-22.06-10.36-22.13-10.41h-.01c-.01.08-1.39 10.04-8.61 22.89z" fill="#FFED90"/><path d="M1539.1 1114.27c14.15 4.18 22.08 10.37 22.13 10.41h.01c0-.06 1.37-10.03 8.61-22.89-14.16-4.18-22.08-10.38-22.13-10.42v.01s0-.01-.01 0c0 .06-1.37 10.02-8.61 22.88v.01z" fill="#EFE1D4"/><path d="M1539.1 1114.27c14.15 4.18 22.08 10.37 22.13 10.41h.01c0-.06 1.37-10.03 8.61-22.89-14.16-4.18-22.08-10.38-22.13-10.42v.01s0-.01-.01 0c0 .06-1.37 10.02-8.61 22.88v.01z" fill="#EFE1D4"/><path d="M1447.97 1151.24l.01.01c14.13 4.17 22.06 10.36 22.12 10.41h.01c.01-.08 1.38-10.04 8.61-22.89v-.01c-14.14-4.17-22.06-10.36-22.13-10.41-.01.08-1.39 10.04-8.62 22.89z" fill="#84CFCB"/><path d="M1447.97 1151.24l.01.01c14.13 4.17 22.06 10.36 22.12 10.41h.01c.01-.08 1.38-10.04 8.61-22.89v-.01c-14.14-4.17-22.06-10.36-22.13-10.41-.01.08-1.39 10.04-8.62 22.89z" fill="#84CFCB"/><path d="M1659.33 1018.22c14.13 4.18 22.06 10.37 22.13 10.42.02-.09 1.39-10.04 8.62-22.89v-.01c-14.14-4.17-22.07-10.36-22.13-10.412 0-.002 0 0-.01.001v.002c-.01.083-1.39 10.039-8.61 22.889" fill="#EFE1D4"/><path d="M1659.33 1018.22c14.13 4.18 22.06 10.37 22.13 10.42.02-.09 1.39-10.04 8.62-22.89v-.01c-14.14-4.17-22.07-10.36-22.13-10.412 0-.002 0 0-.01.001v.002c-.01.083-1.39 10.039-8.61 22.889" fill="#EFE1D4"/><path d="M1750.46 981.244v.002c14.13 4.18 22.06 10.365 22.12 10.416.01.002.01 0 .01-.001v-.002c.01-.083 1.39-10.041 8.62-22.89v-.002l-.01-.001c-14.13-4.178-22.06-10.363-22.12-10.415 0-.002 0 0-.01.001v.002c-.01.083-1.39 10.042-8.61 22.889v.001z" fill="#FFED90"/><path d="M1750.46 981.244v.002c14.13 4.18 22.06 10.365 22.12 10.416.01.002.01 0 .01-.001v-.002c.01-.083 1.39-10.041 8.62-22.89v-.002l-.01-.001c-14.13-4.178-22.06-10.363-22.12-10.415 0-.002 0 0-.01.001v.002c-.01.083-1.39 10.042-8.61 22.889v.001z" fill="#FFED90"/><path d="M1568.2 1055.2c14.14 4.18 22.06 10.37 22.13 10.42v-.01c.02-.08 1.39-10.04 8.62-22.89-14.14-4.18-22.07-10.36-22.13-10.41 0-.01 0 0-.01 0-.01.08-1.39 10.04-8.61 22.89z" fill="#84CFCB"/><path d="M1568.2 1055.2c14.14 4.18 22.06 10.37 22.13 10.42v-.01c.02-.08 1.39-10.04 8.62-22.89-14.14-4.18-22.07-10.36-22.13-10.41 0-.01 0 0-.01 0-.01.08-1.39 10.04-8.61 22.89z" fill="#84CFCB"/><path d="M1477.07 1092.18c14.14 4.18 22.07 10.37 22.13 10.41 0 .01 0 0 0 0 .01-.07 1.38-10.03 8.62-22.89-14.15-4.18-22.07-10.37-22.13-10.42-.01 0-.01 0-.01.01-.01.07-1.38 10.03-8.61 22.88v.01" fill="#FFED90"/><path d="M1477.07 1092.18c14.14 4.18 22.07 10.37 22.13 10.41 0 .01 0 0 0 0 .01-.07 1.38-10.03 8.62-22.89-14.15-4.18-22.07-10.37-22.13-10.42-.01 0-.01 0-.01.01-.01.07-1.38 10.03-8.61 22.88v.01" fill="#FFED90"/><path d="M1385.94 1129.15c14.14 4.18 22.06 10.37 22.13 10.42h.01c.01-.08 1.38-10.04 8.61-22.89-14.14-4.18-22.06-10.37-22.13-10.42h-.01c-.01.08-1.38 10.04-8.61 22.89" fill="#EFE1D4"/><path d="M1385.94 1129.15c14.14 4.18 22.06 10.37 22.13 10.42h.01c.01-.08 1.38-10.04 8.61-22.89-14.14-4.18-22.06-10.37-22.13-10.42h-.01c-.01.08-1.38 10.04-8.61 22.89" fill="#EFE1D4"/><path d="M1851.45 939.491c14.15 4.182 22.07 10.372 22.13 10.417l.01-.001v-.002c.01-.073 1.38-10.034 8.61-22.89v-.002-.001c-14.14-4.18-22.07-10.37-22.13-10.415v.003c-.01.073-1.38 10.034-8.62 22.888v.003" fill="#84CFCB"/><path d="M1851.45 939.491c14.15 4.182 22.07 10.372 22.13 10.417l.01-.001v-.002c.01-.073 1.38-10.034 8.61-22.89v-.002-.001c-14.14-4.18-22.07-10.37-22.13-10.415v.003c-.01.073-1.38 10.034-8.62 22.888v.003" fill="#84CFCB"/></svg>