<svg width="505" height="800" fill="none" xmlns="http://www.w3.org/2000/svg"><path fill="#fff" d="M0 0h500v800H0z"/><path d="M469.653 339.662l.001.003c5.423 8.393 6.766 15.074 6.777 15.128.001.002.001.001.003.002h.002c.042-.037 5.146-4.551 14.539-7.966l.001-.001v-.002c-5.425-8.394-6.767-15.073-6.778-15.128 0-.002-.001-.001-.002-.001-.002-.001-.002-.002-.003-.001-.042.037-5.147 4.55-14.538 7.965l-.002.001z" fill="#84CFCB"/><path d="M451.099 611.952v-.001c-6.127-7.895-8.043-14.434-8.059-14.489l-.002-.001h-.003c-.04.041-4.735 4.978-13.798 9.19l-.001.001v.001c6.129 7.894 8.042 14.434 8.058 14.489l.003.001h.003c.039-.041 4.737-4.978 13.798-9.19l.001-.001z" fill="#EFE1D4"/><path d="M476.498 648.655v-.001c-6.127-7.894-8.042-14.433-8.058-14.488-.001-.002-.001-.001-.003-.001-.001-.001-.001-.002-.003-.001-.039.042-4.734 4.978-13.798 9.191v.001.001c6.128 7.895 8.042 14.433 8.058 14.488.001.002.001.001.003.001.001 0 .001.002.003 0 .039-.041 4.735-4.977 13.798-9.19v-.001z" fill="#FFED90"/><path d="M411.707 632.949v-.001c-6.127-7.894-8.042-14.433-8.058-14.488-.001-.002-.001-.001-.003-.001s-.002-.002-.003 0c-.039.041-4.734 4.978-13.798 9.19l-.001.001.001.001c6.128 7.895 8.042 14.433 8.058 14.488 0 .002.001.001.003.001.001 0 .001.002.002 0 .04-.041 4.736-4.977 13.798-9.19l.001-.001z" fill="#84CFCB"/><path d="M437.111 669.654v-.001c-6.126-7.895-8.043-14.434-8.059-14.489l-.002-.001h-.003c-.039.041-4.735 4.978-13.798 9.19l-.001.001v.001c6.129 7.895 8.043 14.434 8.059 14.488 0 .002.001.001.002.001.002.001.002.002.003.001.039-.042 4.737-4.978 13.798-9.191h.001z" fill="#EFE1D4"/><path d="M462.511 706.357v-.001c-6.128-7.894-8.042-14.434-8.058-14.489l-.003-.001h-.003c-.039.041-4.735 4.979-13.798 9.19v.001.001c6.128 7.895 8.042 14.434 8.058 14.488 0 .002.001.001.003.001.001.001.001.002.003.001.039-.042 4.735-4.978 13.798-9.19v-.001z" fill="#FFED90"/><path d="M397.72 690.651v-.001c-6.128-7.893-8.043-14.434-8.059-14.488 0-.002-.001-.001-.002-.001-.002-.001-.002-.002-.003-.001-.039.042-4.735 4.979-13.798 9.191h-.001v.001c6.129 7.895 8.043 14.434 8.059 14.489l.002.001h.003c.039-.041 4.736-4.977 13.798-9.19l.001-.001z" fill="#84CFCB"/><path d="M423.125 727.356l-.001-.002c-6.126-7.893-8.042-14.433-8.058-14.488l-.003-.001h-.002c-.04.041-4.735 4.979-13.798 9.19l-.001.002v.002c6.129 7.893 8.042 14.432 8.058 14.486.001.002.001.001.003.001.002.001.002.002.003.001.039-.042 4.737-4.977 13.797-9.189l.002-.002z" fill="#EFE1D4"/><path d="M448.524 764.06v-.001c-6.128-7.895-8.043-14.435-8.058-14.49l-.003-.001h-.003c-.039.041-4.735 4.979-13.798 9.191l-.001.001v.001c6.129 7.894 8.043 14.433 8.059 14.488l.002.001h.003c.039-.041 4.736-4.978 13.798-9.189l.001-.001z" fill="#FFED90"/><path d="M383.733 748.354v-.001c-6.128-7.894-8.042-14.434-8.058-14.489-.001-.002-.002-.001-.003-.001-.002-.001-.002-.002-.003-.001-.039.042-4.735 4.98-13.798 9.192l-.001.001v.001c6.129 7.894 8.043 14.432 8.059 14.487 0 .002.001.001.002.001.002 0 .002.002.003 0 .04-.041 4.736-4.977 13.798-9.189l.001-.001zM453.669 459.842v-.002c-6.127-7.893-8.042-14.432-8.058-14.487l-.003-.001h-.003c-.039.041-4.734 4.978-13.797 9.189l-.001.002v.002c6.129 7.893 8.042 14.433 8.058 14.488l.003.001h.002c.04-.041 4.736-4.979 13.798-9.19l.001-.002z" fill="#84CFCB"/><path d="M479.074 496.547l-.001-.002c-6.126-7.893-8.042-14.432-8.058-14.487l-.003-.001h-.003c-.039.041-4.734 4.978-13.797 9.189l-.001.001v.002c6.129 7.894 8.042 14.433 8.058 14.488.001.002.001.001.003.001.001 0 .001.002.003 0 .039-.041 4.737-4.978 13.797-9.189l.002-.002z" fill="#EFE1D4"/><path d="M501.474 533.25c-6.128-7.894-8.043-14.434-8.059-14.489 0-.002-.001-.001-.002-.001-.002 0-.002-.002-.003 0-.04.041-4.735 4.978-13.798 9.189l-.001.002v.002c6.129 7.893 8.043 14.432 8.058 14.487.001.002.002.001.003.001.002 0 .002.002.003 0 .039-.041 4.736-4.978 13.796-9.188l.003-.003" fill="#FFED90"/><path d="M439.682 517.544c-6.127-7.894-8.042-14.434-8.058-14.489l-.003-.001h-.003c-.039.041-4.734 4.979-13.797 9.19l-.002.001.001.002c6.129 7.893 8.042 14.432 8.058 14.487 0 .002.001.001.003.001.001.001.001.002.003.001.039-.042 4.735-4.979 13.796-9.189l.002-.003" fill="#84CFCB"/><path d="M465.086 554.249v-.002c-6.126-7.893-8.042-14.433-8.058-14.488l-.003-.001h-.003c-.039.041-4.734 4.979-13.797 9.19a.002.002 0 00-.002.002l.001.002c6.129 7.892 8.042 14.432 8.058 14.487l.003.001h.002c.04-.041 4.738-4.978 13.798-9.189l.001-.002z" fill="#EFE1D4"/><path d="M490.486 590.954v-.002c-6.128-7.894-8.042-14.434-8.058-14.489-.001-.002-.001-.001-.003-.001s-.002-.002-.003 0c-.039.041-4.735 4.979-13.798 9.191l-.001.001v.001c6.129 7.894 8.043 14.434 8.059 14.488 0 .002.001.001.002.001.002.001.002.002.003.001.039-.042 4.736-4.979 13.798-9.191h.001z" fill="#FFED90"/><path d="M425.694 575.248v-.001c-6.127-7.895-8.042-14.435-8.058-14.49 0-.002-.001-.001-.003-.001-.001 0-.001-.002-.003 0-.039.041-4.734 4.979-13.798 9.191l-.001.001.001.001c6.129 7.894 8.042 14.434 8.058 14.488 0 .002.001.001.003.001.001.001.001.002.002.001.04-.042 4.737-4.979 13.799-9.191zM467.657 402.141l-.001-.003c-6.127-7.892-8.041-14.432-8.057-14.487-.001-.002-.001-.001-.003-.001-.002-.001-.002-.002-.003-.001-.039.042-4.735 4.98-13.797 9.19l-.002.002.001.003c6.128 7.893 8.042 14.432 8.058 14.487 0 .002.001.001.002.001.002.001.002.002.003.001.039-.042 4.736-4.979 13.797-9.19l.002-.002z" fill="#84CFCB"/><path d="M493.061 438.843c-6.126-7.893-8.042-14.433-8.058-14.488-.001-.002-.001-.001-.003-.001-.002-.001-.002-.002-.003-.001-.039.042-4.735 4.979-13.797 9.19l-.002.002.001.002c6.128 7.894 8.042 14.433 8.058 14.488 0 .002.001.001.002.001.002.001.002.002.003.001.039-.042 4.737-4.979 13.797-9.19l.002-.004" fill="#EFE1D4"/></svg>