<?xml version="1.0" encoding="utf-8"?><svg xmlns="http://www.w3.org/2000/svg" xmlns:xlink="http://www.w3.org/1999/xlink" width="1920" height="1064" preserveAspectRatio="xMidYMid" viewBox="0 0 1920 1064" style="z-index:1;display:block;background-color:rgb(241, 242, 243);animation-play-state:paused" ><g transform="" style="animation-play-state:paused" ><linearGradient id="lg-0.6590519274487807" x1="0" x2="1" y1="0" y2="0" style="animation-play-state:paused" ><stop stop-color="#16d395" offset="0" style="animation-play-state:paused" ></stop>

  
<stop stop-color="#40f4d8" offset="1" style="animation-play-state:paused" ></stop></linearGradient>
<path d="M1596.4000244140625 532C1596.4000244140625 711.2000122070312 1253.800048828125 857.4000244140625 1083.5999755859375 912.5999755859375C913.4000244140625 967.7999877929688 576.7999877929688 1031.5999755859375 471.6000061035156 886.5999755859375C366.3999938964844 741.5999755859375 361 318.6000061035156 466.20001220703125 173.60000610351562C571.4000244140625 28.600000381469727 925.4000244140625 59.599998474121094 1095.5999755859375 114.80000305175781C1265.800048828125 170 1596.4000244140625 352.79998779296875 1596.4000244140625 532" fill="url(#lg-0.6590519274487807)" opacity="0.4" style="opacity:0.4;animation-play-state:paused" ></path>
<path d="M1559.800048828125 532C1559.800048828125 701 1248.5999755859375 876.4000244140625 1088.4000244140625 928.4000244140625C928.2000122070312 980.4000244140625 645.7999877929688 969.2000122070312 546.5999755859375 832.5999755859375C447.3999938964844 696 356.20001220703125 301.6000061035156 455.3999938964844 165C554.5999755859375 28.399999618530273 950.4000244140625 16.600000381469727 1110.5999755859375 68.5999984741211C1270.800048828125 120.5999984741211 1559.800048828125 363 1559.800048828125 532" fill="url(#lg-0.6590519274487807)" opacity="0.4" style="opacity:0.4;animation-play-state:paused" ></path>
<path d="M1558.199951171875 532C1558.199951171875 698 1261.4000244140625 922.4000244140625 1103.4000244140625 973.7999877929688C945.4000244140625 1025.199951171875 643.7999877929688 967.2000122070312 546 832.7999877929688C448.20001220703125 698.4000244140625 441 360.20001220703125 538.7999877929688 225.8000030517578C636.5999755859375 91.4000015258789 926.2000122070312 97.5999984741211 1084.199951171875 149C1242.199951171875 200.39999389648438 1558.199951171875 366 1558.199951171875 532" fill="url(#lg-0.6590519274487807)" opacity="0.4" style="opacity:0.4;animation-play-state:paused" ></path>
<path d="M1493.5999755859375 532C1493.5999755859375 690 1233.800048828125 862 1083 910.7999877929688C932.2000122070312 959.5999755859375 601.4000244140625 987.7999877929688 508.6000061035156 860.2000122070312C415.79998779296875 732.5999755859375 477.6000061035156 376.20001220703125 570.4000244140625 248.60000610351562C663.2000122070312 121 951.2000122070312 46 1102 94.80000305175781C1252.800048828125 143.60000610351562 1493.5999755859375 374 1493.5999755859375 532" fill="url(#lg-0.6590519274487807)" opacity="0.4" style="opacity:0.4;animation-play-state:paused" ></path>
<path d="M1550.800048828125 532C1550.800048828125 709.2000122070312 1261.5999755859375 884.2000122070312 1092.5999755859375 939C923.5999755859375 993.7999877929688 632.7999877929688 989 528.5999755859375 845.2000122070312C424.3999938964844 701.4000244140625 394 340.79998779296875 498.20001220703125 197C602.4000244140625 53.20000076293945 948 -6.800000190734863 1117 47.79999923706055C1286 102.4000015258789 1550.800048828125 354.79998779296875 1550.800048828125 532" fill="url(#lg-0.6590519274487807)" opacity="0.4" style="opacity:0.4;animation-play-state:paused" ></path></g></svg>